<svg xmlns="http://www.w3.org/2000/svg" viewBox="0 0 1000 1000"><path d="M500.9 4.5c-185.4 42-320.4 88.4-443.2 127.3 0 129.3.2 231.7.2 339.6 0 304.1 248.2 471.4 443 523.6 194.7-52.2 443-219.5 443-523.6 0-107.9.2-210.3.2-339.6C821.3 92.9 686.2 46.5 500.9 4.5zm-26.1 271.1h52.1c5.8 0 10.3 4.7 10.1 10.4l-11.6 313.8c-.1 2.8-2.5 5.2-5.4 5.2h-38.2c-2.9 0-5.3-2.3-5.4-5.2L464.8 286c-.2-5.8 4.3-10.4 10-10.4zm26.1 448.3c-20.2 0-36.5-16.3-36.5-36.5s16.3-36.5 36.5-36.5 36.5 16.3 36.5 36.5-16.4 36.5-36.5 36.5z" fill-rule="evenodd" clip-rule="evenodd" fill="#020202"/></svg>