<svg xmlns="http://www.w3.org/2000/svg" viewBox="0 0 1000 1000"><path d="M500.9 4.6C315.5 46.7 180.4 93.1 57.6 132c0 129.3.2 231.7.2 339.7 0 304.2 248.3 471.6 443.1 523.7C695.7 943.3 944 775.9 944 471.7c0-108 .2-210.4.2-339.7C821.4 93.1 686.3 46.7 500.9 4.6zm248.3 349.1l-299.7 295c-2.1 2-5.3 2-7.4-.1L304.4 506.1c-2-2.1-2.3-5.7-.6-8l18.3-24.9c1.7-2.3 5-2.8 7.2-1l112.2 86c2.3 1.8 6 1.7 8.1-.1l274.7-228.9c2.2-1.8 5.7-1.7 7.7.3l17 16.8c2.2 2.1 2.2 5.3.2 7.4z" fill-rule="evenodd" clip-rule="evenodd" fill="#070202"/></svg>