<svg width="549.268" height="115.772" viewBox="0 0 549.268 115.772" xmlns="http://www.w3.org/2000/svg"><g id="svgGroup" stroke-linecap="round" fill-rule="evenodd" font-size="9pt" stroke="#000" stroke-width="0.25mm" fill="#000" style="stroke:#000;stroke-width:0.25mm;fill:#000"><path d="M 178.632 73.393 A 1.863 1.863 0 0 0 178.8 72.787 A 11.009 11.009 0 0 0 180.933 74.39 Q 183.155 75.684 185.913 76.245 Q 188.672 76.807 191.358 76.807 Q 194.141 76.807 197.437 76.294 Q 200.733 75.781 204.077 74.365 Q 207.422 72.949 210.523 70.435 Q 213.623 67.92 216.016 63.916 Q 219.922 66.065 223.682 68.311 Q 227.442 70.557 231.324 72.412 Q 235.205 74.268 239.405 75.464 Q 243.604 76.66 248.389 76.66 Q 251.465 76.66 254.004 75.977 Q 256.543 75.293 258.57 74.292 Q 260.596 73.291 262.085 72.095 Q 263.575 70.899 264.576 69.849 Q 265.576 68.799 266.114 68.067 Q 266.651 67.334 266.7 67.236 Q 266.992 66.797 266.992 66.26 Q 266.992 65.576 266.48 64.99 Q 265.967 64.404 265.137 64.404 Q 264.112 64.404 263.575 65.283 Q 263.575 65.332 262.647 66.528 Q 261.719 67.725 259.839 69.165 Q 257.959 70.606 255.103 71.777 Q 252.246 72.949 248.34 72.949 Q 243.897 72.949 239.917 71.753 Q 235.938 70.557 232.202 68.726 Q 228.467 66.895 224.854 64.697 Q 221.241 62.5 217.53 60.547 Q 217.92 59.57 218.238 58.374 Q 218.555 57.178 218.75 55.933 Q 218.946 54.688 219.043 53.491 Q 219.141 52.295 219.141 51.27 Q 219.141 49.512 219.068 47.827 Q 218.994 46.143 218.921 44.238 Q 218.848 42.334 218.775 40.039 Q 218.701 37.744 218.701 34.717 Q 218.701 28.418 219.751 23.267 Q 220.801 18.115 222.998 14.478 Q 225.196 10.84 228.565 8.838 Q 231.934 6.836 236.524 6.836 Q 238.965 6.836 241.187 7.593 Q 243.409 8.35 245.093 9.741 Q 246.778 11.133 247.779 13.11 Q 248.78 15.088 248.78 17.529 Q 248.78 19.971 247.876 21.826 Q 246.973 23.682 245.557 24.951 Q 245.166 25.293 244.898 25.708 Q 244.629 26.123 244.629 26.709 Q 244.629 27.539 245.166 27.93 Q 245.703 28.32 246.387 28.32 Q 247.608 28.32 248.706 27.295 Q 249.805 26.27 250.659 24.683 Q 251.514 23.096 252.002 21.192 Q 252.491 19.287 252.491 17.529 Q 252.491 14.307 251.197 11.67 Q 249.903 9.033 247.681 7.129 Q 245.459 5.225 242.554 4.199 Q 239.649 3.174 236.426 3.174 Q 231.104 3.174 227.1 5.444 Q 223.096 7.715 220.41 11.817 Q 217.725 15.918 216.358 21.655 Q 214.991 27.393 214.991 34.375 Q 214.991 37.402 215.064 39.575 Q 215.137 41.748 215.21 43.482 Q 215.284 45.215 215.357 46.68 Q 215.43 48.145 215.43 49.756 Q 215.43 51.465 215.357 52.759 Q 215.284 54.053 215.113 55.103 Q 214.942 56.152 214.722 57.031 Q 214.502 57.91 214.209 58.789 Q 212.012 57.715 209.522 56.665 Q 207.032 55.615 204.395 54.785 Q 201.758 53.955 198.999 53.467 Q 196.241 52.979 193.457 52.979 Q 189.746 52.979 186.524 53.882 Q 183.301 54.785 180.933 56.445 Q 178.565 58.106 177.222 60.474 Q 175.879 62.842 175.879 65.772 A 11.399 11.399 0 0 0 176.113 68.141 A 8.033 8.033 0 0 0 177.101 70.689 A 2.035 2.035 0 0 0 177.038 70.689 Q 176.903 70.689 176.758 70.703 Q 176.221 70.752 174.854 70.996 Q 173.487 71.24 171.68 71.704 Q 169.873 72.168 167.798 72.803 Q 165.723 73.438 163.721 74.268 Q 163.477 71.436 163.33 68.579 Q 163.184 65.723 163.184 63.086 Q 163.184 59.961 163.404 56.201 Q 163.623 52.442 163.965 48.633 Q 164.307 44.824 164.722 41.235 Q 165.137 37.647 165.528 34.863 Q 166.065 31.152 166.577 27.783 Q 167.09 24.414 167.481 21.851 Q 167.871 19.287 168.116 17.7 Q 168.36 16.113 168.36 15.918 Q 168.36 15.234 167.847 14.673 Q 167.334 14.111 166.504 14.111 Q 165.869 14.111 165.357 14.526 Q 164.844 14.942 164.746 15.625 Q 164.746 15.674 164.356 17.578 Q 163.965 19.483 163.257 22.583 Q 162.549 25.684 161.499 29.688 Q 160.45 33.692 159.131 38.037 Q 157.813 42.383 156.201 46.729 Q 154.59 51.074 152.735 54.785 Q 147.852 64.6 142.603 69.531 Q 137.354 74.463 131.836 74.463 Q 128.809 74.463 126.758 73.462 Q 124.707 72.461 123.438 70.679 Q 122.168 68.897 121.607 66.48 Q 121.045 64.063 121.045 61.231 Q 121.045 58.057 121.558 54.443 Q 122.071 50.83 122.852 47.022 Q 123.633 43.213 124.536 39.307 Q 125.44 35.4 126.172 31.641 Q 126.563 29.883 126.709 28.198 Q 126.856 26.514 126.856 24.902 Q 126.856 20.557 125.562 16.797 Q 124.268 13.037 121.826 10.278 Q 119.385 7.52 115.796 5.933 Q 112.207 4.346 107.666 4.346 Q 102.246 4.346 97.437 6.372 Q 92.627 8.399 89.063 12.061 Q 85.498 15.723 83.423 20.825 Q 81.348 25.928 81.348 32.08 Q 81.348 36.572 82.398 39.917 Q 83.448 43.262 85.034 45.703 Q 86.621 48.145 88.575 49.732 Q 90.528 51.318 92.31 52.246 Q 94.092 53.174 95.508 53.565 Q 96.924 53.955 97.461 53.955 Q 98.194 53.955 98.731 53.394 Q 99.268 52.832 99.268 52.1 Q 99.268 51.416 98.804 50.879 Q 98.34 50.342 97.657 50.244 Q 94.336 49.658 91.944 47.852 Q 89.551 46.045 88.013 43.482 Q 86.475 40.918 85.742 37.866 Q 85.01 34.815 85.01 31.738 Q 85.01 26.611 86.817 22.266 Q 88.623 17.92 91.7 14.746 Q 94.776 11.572 98.902 9.79 Q 103.028 8.008 107.715 8.008 Q 111.426 8.008 114.307 9.302 Q 117.188 10.596 119.165 12.842 Q 121.143 15.088 122.168 18.164 Q 123.194 21.24 123.194 24.805 Q 123.194 28.027 122.412 31.641 Q 121.631 35.254 120.85 38.818 Q 119.532 44.775 118.457 50.562 Q 117.383 56.348 117.383 61.426 Q 117.383 65.234 118.262 68.311 Q 119.141 71.387 120.948 73.56 Q 122.754 75.733 125.44 76.929 Q 128.125 78.125 131.787 78.125 Q 135.938 78.125 139.942 75.928 Q 143.946 73.731 147.632 69.458 Q 151.319 65.186 154.688 58.838 Q 158.057 52.49 160.938 44.19 Q 160.645 46.924 160.376 49.561 Q 160.108 52.197 159.912 54.59 Q 159.717 56.983 159.619 59.058 Q 159.522 61.133 159.522 62.744 Q 159.522 65.918 159.693 69.312 Q 159.864 72.705 160.108 75.781 Q 154.151 78.565 149.805 82.056 Q 145.459 85.547 142.627 89.282 Q 139.795 93.018 138.428 96.729 Q 137.061 100.44 137.061 103.711 Q 137.061 106.201 137.842 108.399 Q 138.623 110.596 140.088 112.232 Q 141.553 113.867 143.653 114.819 Q 145.752 115.772 148.389 115.772 Q 152.93 115.772 156.006 113.428 Q 159.082 111.084 160.938 107.251 Q 162.793 103.418 163.575 98.535 Q 164.356 93.652 164.356 88.525 Q 164.356 85.986 164.258 83.374 Q 164.16 80.762 163.965 78.125 Q 166.358 77.1 168.653 76.392 Q 170.948 75.684 172.73 75.244 Q 174.512 74.805 175.659 74.609 Q 176.807 74.414 176.905 74.414 Q 178.229 74.21 178.632 73.393 Z M 357.032 11.182 L 358.106 11.182 Q 358.692 11.182 359.18 11.524 Q 359.668 11.865 359.912 12.402 Q 360.01 12.793 360.01 13.037 Q 360.01 14.014 359.278 14.502 Q 354.541 18.164 349.195 22.29 Q 343.848 26.416 338.306 30.786 Q 332.764 35.156 327.173 39.575 Q 321.582 43.994 316.358 48.218 Q 311.133 52.442 306.421 56.348 Q 301.709 60.254 297.901 63.501 Q 294.092 66.748 291.358 69.263 Q 288.623 71.777 287.354 73.242 Q 289.6 72.9 293.042 72.315 Q 296.485 71.729 301.221 71.216 Q 305.957 70.703 311.939 70.313 Q 317.92 69.922 325.196 69.922 Q 332.032 69.922 339.771 70.484 Q 347.51 71.045 356.348 72.461 Q 357.032 72.559 357.471 73.047 Q 357.91 73.535 357.91 74.219 Q 357.91 75.049 357.373 75.61 Q 356.836 76.172 356.055 76.172 Q 355.86 76.172 355.616 76.123 Q 346.924 74.707 339.38 74.146 Q 331.836 73.584 325.147 73.584 Q 319.287 73.584 314.112 73.877 Q 308.936 74.17 304.59 74.561 Q 300.244 74.951 296.778 75.415 Q 293.311 75.879 290.869 76.221 Q 290.137 76.318 289.356 76.465 Q 288.575 76.611 287.842 76.709 Q 287.11 76.807 286.499 76.88 Q 285.889 76.953 285.547 76.953 Q 284.375 76.953 283.448 76.343 Q 282.52 75.733 282.52 74.463 Q 282.52 73.779 282.837 73.047 Q 283.155 72.315 283.985 71.484 Q 285.498 69.824 287.915 67.505 Q 290.332 65.186 294.336 61.719 Q 296.631 59.717 299.903 57.007 Q 303.174 54.297 307.056 51.123 Q 310.938 47.949 315.235 44.507 Q 319.532 41.065 323.926 37.573 Q 328.321 34.082 332.569 30.689 Q 336.817 27.295 340.625 24.317 Q 344.434 21.338 347.583 18.872 Q 350.733 16.406 352.881 14.746 Q 347.657 14.404 342.31 13.648 Q 336.963 12.891 331.787 11.963 Q 326.612 11.035 321.68 10.059 Q 316.748 9.082 312.329 8.276 Q 307.91 7.471 304.102 6.958 Q 300.293 6.445 297.364 6.445 Q 292.774 6.445 288.794 7.568 Q 284.815 8.692 281.861 10.791 Q 278.907 12.891 277.222 15.82 Q 275.537 18.75 275.537 22.315 Q 275.537 24.756 276.367 26.953 Q 277.198 29.15 278.882 30.811 Q 280.567 32.471 283.033 33.423 Q 285.498 34.375 288.819 34.375 Q 292.041 34.375 295.166 33.301 Q 298.291 32.227 300.977 30.127 Q 301.514 29.736 302.1 29.736 Q 302.832 29.736 303.394 30.249 Q 303.955 30.762 303.955 31.543 Q 303.955 32.471 303.272 33.008 Q 300.098 35.498 296.363 36.768 Q 292.627 38.037 288.819 38.037 Q 284.571 38.037 281.397 36.743 Q 278.223 35.449 276.099 33.301 Q 273.975 31.152 272.925 28.296 Q 271.875 25.44 271.875 22.315 Q 271.875 17.871 273.853 14.258 Q 275.83 10.645 279.297 8.106 Q 282.764 5.567 287.427 4.175 Q 292.09 2.783 297.461 2.783 Q 300.928 2.783 305.176 3.369 Q 309.424 3.955 314.234 4.834 Q 319.043 5.713 324.292 6.763 Q 329.541 7.813 335.01 8.74 Q 340.479 9.668 346.021 10.352 Q 351.563 11.035 357.032 11.182 Z M 546.289 11.182 L 547.364 11.182 Q 547.95 11.182 548.438 11.524 Q 548.926 11.865 549.17 12.402 Q 549.268 12.793 549.268 13.037 Q 549.268 14.014 548.535 14.502 Q 543.799 18.164 538.452 22.29 Q 533.106 26.416 527.564 30.786 Q 522.022 35.156 516.431 39.575 Q 510.84 43.994 505.616 48.218 Q 500.391 52.442 495.679 56.348 Q 490.967 60.254 487.159 63.501 Q 483.35 66.748 480.616 69.263 Q 477.881 71.777 476.612 73.242 Q 478.858 72.9 482.3 72.315 Q 485.742 71.729 490.479 71.216 Q 495.215 70.703 501.197 70.313 Q 507.178 69.922 514.453 69.922 Q 521.289 69.922 529.029 70.484 Q 536.768 71.045 545.606 72.461 Q 546.289 72.559 546.729 73.047 Q 547.168 73.535 547.168 74.219 Q 547.168 75.049 546.631 75.61 Q 546.094 76.172 545.313 76.172 Q 545.117 76.172 544.873 76.123 Q 536.182 74.707 528.638 74.146 Q 521.094 73.584 514.405 73.584 Q 508.545 73.584 503.369 73.877 Q 498.194 74.17 493.848 74.561 Q 489.502 74.951 486.035 75.415 Q 482.569 75.879 480.127 76.221 Q 479.395 76.318 478.614 76.465 Q 477.832 76.611 477.1 76.709 Q 476.367 76.807 475.757 76.88 Q 475.147 76.953 474.805 76.953 Q 473.633 76.953 472.705 76.343 Q 471.778 75.733 471.778 74.463 Q 471.778 73.779 472.095 73.047 Q 472.412 72.315 473.242 71.484 Q 474.756 69.824 477.173 67.505 Q 479.59 65.186 483.594 61.719 Q 485.889 59.717 489.16 57.007 Q 492.432 54.297 496.314 51.123 Q 500.196 47.949 504.492 44.507 Q 508.789 41.065 513.184 37.573 Q 517.578 34.082 521.826 30.689 Q 526.075 27.295 529.883 24.317 Q 533.692 21.338 536.841 18.872 Q 539.991 16.406 542.139 14.746 Q 536.914 14.404 531.568 13.648 Q 526.221 12.891 521.045 11.963 Q 515.869 11.035 510.938 10.059 Q 506.006 9.082 501.587 8.276 Q 497.168 7.471 493.36 6.958 Q 489.551 6.445 486.621 6.445 Q 482.032 6.445 478.052 7.568 Q 474.073 8.692 471.118 10.791 Q 468.164 12.891 466.48 15.82 Q 464.795 18.75 464.795 22.315 Q 464.795 24.756 465.625 26.953 Q 466.455 29.15 468.14 30.811 Q 469.825 32.471 472.29 33.423 Q 474.756 34.375 478.076 34.375 Q 481.299 34.375 484.424 33.301 Q 487.549 32.227 490.235 30.127 Q 490.772 29.736 491.358 29.736 Q 492.09 29.736 492.652 30.249 Q 493.213 30.762 493.213 31.543 Q 493.213 32.471 492.53 33.008 Q 489.356 35.498 485.62 36.768 Q 481.885 38.037 478.076 38.037 Q 473.828 38.037 470.655 36.743 Q 467.481 35.449 465.357 33.301 Q 463.233 31.152 462.183 28.296 Q 461.133 25.44 461.133 22.315 Q 461.133 17.871 463.111 14.258 Q 465.088 10.645 468.555 8.106 Q 472.022 5.567 476.685 4.175 Q 481.348 2.783 486.719 2.783 Q 490.186 2.783 494.434 3.369 Q 498.682 3.955 503.492 4.834 Q 508.301 5.713 513.55 6.763 Q 518.799 7.813 524.268 8.74 Q 529.737 9.668 535.279 10.352 Q 540.821 11.035 546.289 11.182 Z M 456.397 74.805 Q 456.397 75.537 455.86 76.123 Q 455.323 76.709 454.541 76.611 Q 450.196 76.27 446.826 75.049 Q 443.457 73.828 440.796 71.875 Q 438.135 69.922 436.035 67.236 Q 433.936 64.551 432.105 61.255 Q 430.274 57.959 428.565 54.077 Q 426.856 50.195 425 45.801 Q 416.797 53.809 407.935 61.572 Q 399.073 69.336 389.405 76.856 Q 388.77 77.344 388.355 77.686 Q 387.94 78.027 387.647 78.223 Q 387.354 78.418 387.11 78.491 Q 386.866 78.565 386.573 78.565 Q 385.84 78.565 385.279 78.003 Q 384.717 77.442 384.717 76.709 Q 384.717 76.221 385.059 75.684 Q 385.157 75.537 385.23 75.464 Q 385.303 75.391 385.498 75.22 Q 385.694 75.049 386.035 74.78 L 387.061 73.975 Q 396.924 66.309 406.006 58.35 Q 415.088 50.391 423.438 42.188 Q 423.34 42.041 423.316 41.87 Q 423.291 41.699 423.194 41.553 Q 421.094 36.817 419.287 32.398 Q 417.481 27.979 415.601 24.121 Q 413.721 20.264 411.573 17.066 Q 409.424 13.867 406.641 11.597 Q 403.858 9.326 400.269 8.057 Q 396.68 6.787 391.944 6.787 Q 389.209 6.787 386.353 7.52 Q 383.496 8.252 380.811 9.595 Q 378.125 10.938 375.708 12.842 Q 373.291 14.746 371.485 17.114 Q 369.678 19.483 368.628 22.266 Q 367.578 25.049 367.578 28.076 Q 367.578 30.762 368.409 32.984 Q 369.239 35.205 370.703 36.817 Q 372.168 38.428 374.146 39.307 Q 376.123 40.186 378.467 40.186 Q 381.006 40.186 383.057 39.429 Q 385.108 38.672 386.548 37.769 Q 387.989 36.865 388.794 36.084 Q 389.6 35.303 389.649 35.303 Q 390.186 34.766 390.967 34.766 Q 391.7 34.766 392.237 35.327 Q 392.774 35.889 392.774 36.621 Q 392.774 37.402 392.237 37.94 Q 392.09 38.037 391.089 38.989 Q 390.088 39.942 388.282 41.016 Q 386.475 42.09 384.009 42.969 Q 381.543 43.848 378.467 43.848 Q 375.391 43.848 372.73 42.676 Q 370.069 41.504 368.116 39.404 Q 366.162 37.305 365.039 34.424 Q 363.916 31.543 363.916 28.125 Q 363.916 24.658 365.039 21.484 Q 366.162 18.311 368.14 15.527 Q 370.117 12.744 372.779 10.474 Q 375.44 8.203 378.54 6.567 Q 381.641 4.932 385.034 4.053 Q 388.428 3.174 391.846 3.174 Q 397.071 3.174 401.05 4.443 Q 405.03 5.713 408.081 8.008 Q 411.133 10.303 413.501 13.599 Q 415.869 16.895 417.945 20.899 Q 420.02 24.902 421.973 29.59 Q 423.926 34.277 426.221 39.404 Q 435.889 29.639 444.043 19.971 Q 452.198 10.303 458.741 0.781 Q 459.278 0 460.254 0 Q 461.084 0 461.597 0.562 Q 462.11 1.123 462.11 1.807 Q 462.11 2.49 461.768 2.881 Q 454.981 12.744 446.485 22.803 Q 437.989 32.861 427.832 43.018 Q 429.541 47.022 431.128 50.733 Q 432.715 54.443 434.375 57.691 Q 436.035 60.938 437.94 63.623 Q 439.844 66.309 442.212 68.286 Q 444.58 70.264 447.608 71.484 Q 450.635 72.705 454.541 72.949 Q 455.323 72.998 455.86 73.511 Q 456.397 74.024 456.397 74.805 Z M 90.821 67.236 Q 90.772 67.334 90.235 68.067 Q 89.698 68.799 88.697 69.849 Q 87.696 70.899 86.206 72.095 Q 84.717 73.291 82.691 74.292 Q 80.664 75.293 78.125 75.977 Q 75.586 76.66 72.51 76.66 Q 67.725 76.66 63.526 75.464 Q 59.326 74.268 55.445 72.412 Q 51.563 70.557 47.803 68.311 Q 44.043 66.065 40.137 63.916 Q 37.744 67.92 34.644 70.435 Q 31.543 72.949 28.199 74.365 Q 24.854 75.781 21.558 76.294 Q 18.262 76.807 15.479 76.807 Q 12.793 76.807 10.034 76.245 Q 7.276 75.684 5.054 74.39 Q 2.832 73.096 1.416 70.996 Q 0 68.897 0 65.772 Q 0 62.842 1.343 60.474 Q 2.686 58.106 5.054 56.445 Q 7.422 54.785 10.645 53.882 Q 13.867 52.979 17.578 52.979 Q 20.362 52.979 23.12 53.467 Q 25.879 53.955 28.516 54.785 Q 31.153 55.615 33.643 56.665 Q 36.133 57.715 38.33 58.789 Q 38.623 57.91 38.843 57.031 Q 39.063 56.152 39.234 55.103 Q 39.405 54.053 39.478 52.759 Q 39.551 51.465 39.551 49.756 Q 39.551 48.145 39.478 46.68 Q 39.405 45.215 39.331 43.482 Q 39.258 41.748 39.185 39.575 Q 39.112 37.402 39.112 34.375 Q 39.112 27.393 40.479 21.655 Q 41.846 15.918 44.532 11.817 Q 47.217 7.715 51.221 5.444 Q 55.225 3.174 60.547 3.174 Q 63.77 3.174 66.675 4.199 Q 69.58 5.225 71.802 7.129 Q 74.024 9.033 75.318 11.67 Q 76.612 14.307 76.612 17.529 Q 76.612 19.287 76.123 21.192 Q 75.635 23.096 74.781 24.683 Q 73.926 26.27 72.827 27.295 Q 71.729 28.32 70.508 28.32 Q 69.825 28.32 69.287 27.93 Q 68.75 27.539 68.75 26.709 Q 68.75 26.123 69.019 25.708 Q 69.287 25.293 69.678 24.951 Q 71.094 23.682 71.997 21.826 Q 72.901 19.971 72.901 17.529 Q 72.901 15.088 71.9 13.11 Q 70.899 11.133 69.214 9.741 Q 67.53 8.35 65.308 7.593 Q 63.086 6.836 60.645 6.836 Q 56.055 6.836 52.686 8.838 Q 49.317 10.84 47.119 14.478 Q 44.922 18.115 43.872 23.267 Q 42.823 28.418 42.823 34.717 Q 42.823 37.744 42.896 40.039 Q 42.969 42.334 43.042 44.238 Q 43.116 46.143 43.189 47.827 Q 43.262 49.512 43.262 51.27 Q 43.262 52.295 43.164 53.491 Q 43.067 54.688 42.871 55.933 Q 42.676 57.178 42.359 58.374 Q 42.041 59.57 41.651 60.547 Q 45.362 62.5 48.975 64.697 Q 52.588 66.895 56.324 68.726 Q 60.059 70.557 64.038 71.753 Q 68.018 72.949 72.461 72.949 Q 76.367 72.949 79.224 71.777 Q 82.08 70.606 83.96 69.165 Q 85.84 67.725 86.768 66.528 Q 87.696 65.332 87.696 65.283 Q 88.233 64.404 89.258 64.404 Q 90.088 64.404 90.601 64.99 Q 91.114 65.576 91.114 66.26 Q 91.114 66.797 90.821 67.236 Z M 160.401 79.785 Q 155.713 81.934 152.076 84.912 Q 148.438 87.891 145.923 91.138 Q 143.409 94.385 142.09 97.656 Q 140.772 100.928 140.772 103.711 Q 140.772 105.469 141.284 106.983 Q 141.797 108.496 142.774 109.644 Q 143.75 110.791 145.166 111.426 Q 146.582 112.061 148.34 112.061 Q 150.977 112.061 152.906 110.938 Q 154.834 109.815 156.226 107.91 Q 157.617 106.006 158.472 103.565 Q 159.326 101.123 159.839 98.511 Q 160.352 95.899 160.523 93.286 Q 160.694 90.674 160.694 88.428 Q 160.694 86.328 160.596 84.155 Q 160.498 81.983 160.401 79.785 Z M 36.914 62.109 Q 34.815 61.084 32.495 60.083 Q 30.176 59.082 27.735 58.301 Q 25.293 57.52 22.73 57.056 Q 20.166 56.592 17.627 56.592 Q 14.746 56.592 12.207 57.202 Q 9.668 57.813 7.764 58.984 Q 5.86 60.156 4.761 61.817 Q 3.662 63.477 3.662 65.576 Q 3.662 67.529 4.639 68.97 Q 5.616 70.41 7.251 71.362 Q 8.887 72.315 11.035 72.778 Q 13.184 73.242 15.528 73.242 Q 18.36 73.242 21.387 72.778 Q 24.414 72.315 27.246 71.069 Q 30.078 69.824 32.569 67.651 Q 35.059 65.479 36.914 62.109 Z M 212.793 62.109 Q 210.694 61.084 208.374 60.083 Q 206.055 59.082 203.614 58.301 Q 201.172 57.52 198.609 57.056 Q 196.045 56.592 193.506 56.592 Q 190.625 56.592 188.086 57.202 Q 185.547 57.813 183.643 58.984 Q 181.739 60.156 180.64 61.817 Q 179.541 63.477 179.541 65.576 Q 179.541 67.529 180.518 68.97 Q 181.494 70.41 183.13 71.362 Q 184.766 72.315 186.914 72.778 Q 189.063 73.242 191.407 73.242 Q 194.239 73.242 197.266 72.778 Q 200.293 72.315 203.125 71.069 Q 205.957 69.824 208.448 67.651 Q 210.938 65.479 212.793 62.109 Z"/></g></svg>